HIERARCHY
ROOT reference
{
  OFFSET 0 0 0
  CHANNELS 6 Xposition Yposition Zposition Zrotation Xrotation Yrotation
  JOINT Hips
  {
    OFFSET -18.9917 90.8834 69.6086
    CHANNELS 6 Xposition Yposition Zposition Zrotation Xrotation Yrotation
    JOINT Spine
    {
      OFFSET 0 8.12958 0
      CHANNELS 6 Xposition Yposition Zposition Zrotation Xrotation Yrotation
      JOINT Spine1
      {
        OFFSET 0 26.3907 0
        CHANNELS 6 Xposition Yposition Zposition Zrotation Xrotation Yrotation
        JOINT Neck
        {
          OFFSET 0 26.2823 2.3893
          CHANNELS 6 Xposition Yposition Zposition Zrotation Xrotation Yrotation
          JOINT Head
          {
            OFFSET 0 13.8798 -1.98282
            CHANNELS 6 Xposition Yposition Zposition Zrotation Xrotation Yrotation
            End Site
            {
              OFFSET 0 24.7853 0
            }
          }
        }
        JOINT LeftShoulder
        {
          OFFSET 3.97789 23.5745 -0.27352
          CHANNELS 6 Xposition Yposition Zposition Zrotation Xrotation Yrotation
          JOINT LeftArm
          {
            OFFSET 13.7626 0 0
            CHANNELS 6 Xposition Yposition Zposition Zrotation Xrotation Yrotation
            JOINT LeftForeArm
            {
              OFFSET 26.1014 0 0
              CHANNELS 6 Xposition Yposition Zposition Zrotation Xrotation Yrotation
              JOINT LeftHand
              {
                OFFSET 29.9599 0 0
                CHANNELS 6 Xposition Yposition Zposition Zrotation Xrotation Yrotation
                End Site
                {
                  OFFSET 14.8712 0 0
                }
              }
            }
          }
        }
        JOINT RightShoulder
        {
          OFFSET -3.9517 23.5745 -0.27352
          CHANNELS 6 Xposition Yposition Zposition Zrotation Xrotation Yrotation
          JOINT RightArm
          {
            OFFSET -13.7626 0 0
            CHANNELS 6 Xposition Yposition Zposition Zrotation Xrotation Yrotation
            JOINT RightForeArm
            {
              OFFSET -26.1014 0 0
              CHANNELS 6 Xposition Yposition Zposition Zrotation Xrotation Yrotation
              JOINT RightHand
              {
                OFFSET -29.9599 0 0
                CHANNELS 6 Xposition Yposition Zposition Zrotation Xrotation Yrotation
                End Site
                {
                  OFFSET -14.8712 0 0
                }
              }
            }
          }
        }
      }
    }
    JOINT LeftUpLeg
    {
      OFFSET 9.91412 0 0
      CHANNELS 6 Xposition Yposition Zposition Zrotation Xrotation Yrotation
      JOINT LeftLeg
      {
        OFFSET 0 -41.4279 0
        CHANNELS 6 Xposition Yposition Zposition Zrotation Xrotation Yrotation
        JOINT LeftFoot
        {
          OFFSET 0 -41.0254 0
          CHANNELS 6 Xposition Yposition Zposition Zrotation Xrotation Yrotation
          JOINT LeftToeBase
          {
            OFFSET 0 -6.44418 14.8712
            CHANNELS 6 Xposition Yposition Zposition Zrotation Xrotation Yrotation
            End Site
            {
              OFFSET 0 0 3.96565
            }
          }
        }
      }
    }
    JOINT RightUpLeg
    {
      OFFSET -9.91412 0 0
      CHANNELS 6 Xposition Yposition Zposition Zrotation Xrotation Yrotation
      JOINT RightLeg
      {
        OFFSET 0 -41.4279 0
        CHANNELS 6 Xposition Yposition Zposition Zrotation Xrotation Yrotation
        JOINT RightFoot
        {
          OFFSET 0 -41.0254 0
          CHANNELS 6 Xposition Yposition Zposition Zrotation Xrotation Yrotation
          JOINT RightToeBase
          {
            OFFSET 0 -6.44418 14.8712
            CHANNELS 6 Xposition Yposition Zposition Zrotation Xrotation Yrotation
            End Site
            {
              OFFSET 0 0 3.96565
            }
          }
        }
      }
    }
  }
}
MOTION
Frames:	5
Frame Time:	0.004
0 0 0 0 0 -0 -32.0826 82.0733 -63.3703 1.11264 -2.2544 8.25353 3.55271e-015 8.12958 7.10543e-015 1.03416 6.74426 -5.54104 -3.55271e-015 26.3907 1.42109e-014 -2.03732 6.4856 -5.36472 -7.10543e-015 26.2823 2.3893 -0.207005 9.35951 -4.5605 0 13.8798 -1.98282 2.90044 -9.30942 -4.08921 3.97789 23.5745 -0.27352 -10.5562 23.5461 8.51532 13.7626 2.84217e-014 -2.84217e-014 -36.9468 20.3751 -8.91471 26.1014 0 0 2.50783 -22.6248 -49.6851 29.9599 -7.10543e-015 -3.55271e-015 -3.38257 -21.1202 -15.4878 -3.9517 23.5745 -0.27352 19.1503 22.6368 -8.87277 -13.7626 0 1.42109e-014 34.4441 20.3395 11.1292 -26.1014 2.13163e-014 2.84217e-014 -3.80302 -20.2108 41.1674 -29.9599 0 -1.42109e-014 10.1524 -17.3047 18.3083 9.91412 -1.42109e-014 7.10543e-015 4.18165 19.8316 0.500443 0 -41.4279 -1.42109e-014 -0.708984 13.4771 -4.00298 3.55271e-015 -41.0254 -1.42109e-014 -8.55247 -20.5266 5.60034 3.55271e-015 -6.44418 14.8712 -7.95139e-016 1.59028e-015 -0 -9.91412 -1.42109e-014 0 -9.71897 -27.1206 -5.17287 7.10543e-015 -41.4279 -3.55271e-015 2.92266 19.1661 5.83405 0 -41.0254 0 3.36015 2.87417 -15.5639 0 -6.44418 14.8712 0 0 -0 
0 0 0 0 0 -0 -32.1536 82.0779 -62.8953 1.08349 -2.34513 8.26173 0 8.12958 0 1.16302 6.80203 -5.54608 3.55271e-015 26.3907 0 -2.05277 6.53095 -5.35987 1.42109e-014 26.2823 2.3893 -0.403078 9.48122 -4.46625 0 13.8798 -1.98282 3.11726 -9.50231 -3.92587 3.97789 23.5745 -0.27352 -10.6431 23.5365 8.56592 13.7626 0 0 -36.9622 20.1029 -8.84422 26.1014 0 0 2.38061 -22.4317 -49.6555 29.9599 -7.10543e-015 0 -3.27259 -20.9969 -15.4099 -3.9517 23.5745 -0.27352 19.2288 22.7105 -8.85969 -13.7626 0 0 34.322 20.2501 11.2408 -26.1014 -1.42109e-014 0 -3.76386 -20.2544 41.0807 -29.9599 0 0 10.0211 -17.3954 18.205 9.91412 0 0 4.38223 19.897 0.241776 -3.55271e-015 -41.4279 0 -0.794718 14.0482 -3.94921 1.77636e-015 -41.0254 1.42109e-014 -8.76495 -20.3272 5.5892 -3.55271e-015 -6.44418 14.8712 3.97569e-016 0 -0 -9.91412 1.42109e-014 7.10543e-015 -9.64856 -27.2473 -5.12633 0 -41.4279 0 3.02159 20.1385 6.80329 -7.10543e-015 -41.0254 -7.10543e-015 2.99495 2.36882 -16.4764 0 -6.44418 14.8712 -9.93923e-017 0 -0 
0 0 0 0 0 -0 -32.2271 82.0836 -62.4137 1.03369 -2.4757 8.22815 -7.10543e-015 8.12958 7.10543e-015 1.30362 6.84843 -5.53534 0 26.3907 0 -2.05935 6.6599 -5.33754 0 26.2823 2.3893 -0.473111 9.45506 -4.42994 -7.10543e-015 13.8798 -1.98282 3.08499 -9.4785 -3.89136 3.97789 23.5745 -0.27352 -10.7094 23.4344 8.57085 13.7626 2.84217e-014 -1.42109e-014 -37.0071 19.9524 -8.71988 26.1014 0 0 2.30883 -22.2936 -49.548 29.9599 0 -7.10543e-015 -3.29486 -20.888 -15.416 -3.9517 23.5745 -0.27352 19.2405 22.6757 -8.78225 -13.7626 1.42109e-014 0 34.2782 20.5115 11.2467 -26.1014 1.42109e-014 0 -4.04464 -20.3748 40.8952 -29.9599 -1.42109e-014 0 10.2007 -17.3759 18.4448 9.91412 -1.42109e-014 7.10543e-015 4.62902 20.0079 -0.006806 -3.55271e-015 -41.4279 0 -0.955598 14.6346 -3.88131 1.77636e-015 -41.0254 -1.42109e-014 -8.95163 -20.1215 5.60751 -3.55271e-015 -6.44418 14.8712 1.59028e-015 0 -3.18055e-015 -9.91412 -1.42109e-014 0 -9.53846 -27.3475 -5.01031 0 -41.4279 0 3.18015 21.1057 7.13126 -7.10543e-015 -41.0254 7.10543e-015 2.42118 1.96725 -17.1321 -7.10543e-015 -6.44418 14.8712 9.93923e-017 -7.95139e-016 -7.95139e-016 
0 0 0 0 0 -0 -32.2997 82.0952 -61.9394 0.981802 -2.58907 8.20466 3.55271e-015 8.12958 -7.10543e-015 1.47132 6.90481 -5.52866 3.55271e-015 26.3907 0 -2.10081 6.74397 -5.31613 1.42109e-014 26.2823 2.3893 -0.51866 9.46542 -4.40116 0 13.8798 -1.98282 3.00787 -9.48025 -3.87572 3.97789 23.5745 -0.27352 -10.7652 23.412 8.58671 13.7626 1.42109e-014 0 -37.0564 19.6224 -8.62404 26.1014 -1.42109e-014 1.42109e-014 2.14414 -22.0824 -49.4889 29.9599 0 7.10543e-015 -3.56993 -20.7057 -15.6348 -3.9517 23.5745 -0.27352 19.3178 22.7332 -8.75416 -13.7626 0 0 34.1907 20.163 11.3662 -26.1014 0 -2.84217e-014 -3.94185 -20.1591 40.7862 -29.9599 1.42109e-014 -1.42109e-014 10.0478 -17.2184 18.474 9.91412 0 -7.10543e-015 4.86588 20.0426 -0.223402 -1.77636e-015 -41.4279 0 -1.09047 15.2933 -3.80832 0 -41.0254 0 -9.17019 -19.861 5.56411 0 -6.44418 14.8712 -1.19271e-015 0 -0 -9.91412 -1.42109e-014 0 -9.42669 -27.4525 -4.95403 -7.10543e-015 -41.4279 7.10543e-015 3.30418 22.0847 7.43764 0 -41.0254 7.10543e-015 2.19782 1.68495 -17.8671 0 -6.44418 14.8712 -1.98785e-016 7.95139e-016 -7.95139e-016 
0 0 0 0 0 -0 -32.379 82.1157 -61.4725 0.913654 -2.69442 8.19172 0 8.12958 0 1.61435 6.94035 -5.52735 0 26.3907 -1.42109e-014 -2.08121 6.84834 -5.30495 0 26.2823 2.3893 -0.570685 9.4981 -4.36536 -7.10543e-015 13.8798 -1.98282 2.91208 -9.54412 -3.85511 3.97789 23.5745 -0.27352 -10.8468 23.3546 8.58875 13.7626 1.42109e-014 -1.42109e-014 -37.1202 19.6417 -8.53466 26.1014 7.10543e-015 -1.42109e-014 2.18731 -22.1354 -49.339 29.9599 -7.10543e-015 0 -3.51539 -20.7496 -15.6759 -3.9517 23.5745 -0.27352 19.378 22.7748 -8.75296 -13.7626 1.42109e-014 0 34.0418 20.2448 11.5165 -26.1014 7.10543e-015 0 -3.99128 -20.2867 40.6576 -29.9599 -1.42109e-014 0 10.064 -17.3407 18.384 9.91412 0 0 5.13827 20.041 -0.431023 -5.32907e-015 -41.4279 1.42109e-014 -1.24759 15.9889 -3.8307 0 -41.0254 0 -9.38033 -19.5935 5.61418 0 -6.44418 14.8712 -7.95139e-016 -1.59028e-015 -0 -9.91412 -1.42109e-014 -7.10543e-015 -9.28692 -27.5271 -4.81278 -7.10543e-015 -41.4279 -3.55271e-015 3.44742 22.997 7.65736 0 -41.0254 0 1.70612 1.52272 -18.5901 -7.10543e-015 -6.44418 14.8712 -0 -1.59028e-015 -0 
